<?xml version="1.0" standalone="no"?>
<!DOCTYPE svg PUBLIC "-//W3C//DTD SVG 1.1//EN" "http://www.w3.org/Graphics/SVG/1.1/DTD/svg11.dtd" >
<svg xmlns="http://www.w3.org/2000/svg" xmlns:xlink="http://www.w3.org/1999/xlink" version="1.1">
<metadata></metadata>
<defs>
<font id="quanneitalic" horiz-adv-x="983" >
<font-face units-per-em="2048" ascent="1550" descent="-498" />
<missing-glyph horiz-adv-x="512" />
<glyph horiz-adv-x="0" />
<glyph horiz-adv-x="682" />
<glyph unicode=" "  horiz-adv-x="512" />
<glyph unicode="&#x09;" horiz-adv-x="512" />
<glyph unicode="&#xa0;" horiz-adv-x="512" />
<glyph unicode="!" horiz-adv-x="387" d="M-106 141q14 60 62 102t105 42q56 0 86 -42t17 -102q-12 -58 -60 -99.5t-104 -41.5q-57 0 -87.5 41t-18.5 100zM88 477q97 755 154 1026l225 31q-25 -117 -97 -381.5t-131 -470.5l-59 -205h-92z" />
<glyph unicode="&#x22;" horiz-adv-x="796" d="M109 1004q15 99 46.5 268t39.5 229l208 49q-5 -17 -66.5 -222.5t-98.5 -323.5h-129zM414 1004q13 81 45 256t41 241l209 49q-73 -251 -166 -546h-129z" />
<glyph unicode="#" horiz-adv-x="1505" d="M74 373l65 131h277l125 260l-279 2l68 133h276l203 422l129 2l-203 -424h260l203 422l129 2l-203 -424h297l-67 -137l-293 2l-123 -260h293l-66 -137l-293 2l-176 -369h-133l176 369l-256 2l-176 -371h-133l178 371zM549 504h256l125 260h-258z" />
<glyph unicode="$" horiz-adv-x="1310" d="M61 98l60 293l125 23q0 -128 39 -189q3 -4 16.5 -23t22.5 -29.5t25 -26.5t35 -28t42 -20l139 656q-82 45 -128 75t-99 77.5t-71 102.5t-5 121q32 152 166 262t303 134l27 123l119 -17l-21 -100q85 -3 156.5 -16.5t115 -31t73 -38t40.5 -36.5t8 -26l-98 -264h-113 q18 122 -2 183q-24 57 -74 83t-131 31l-104 -497h2q419 -192 358 -498q-17 -83 -59 -158.5t-109 -139.5t-168 -104.5t-223 -46.5l-34 -163l-119 53l24 112q-223 17 -338 123zM436 1190q-13 -70 30 -118t146 -99l97 442q-115 -14 -185 -76t-88 -149zM551 86q74 6 136.5 35.5 t105 74.5t70 96.5t38.5 106.5q10 48 -2.5 90.5t-47.5 79t-74 64.5t-97 61z" />
<glyph unicode="%" horiz-adv-x="1542" d="M31 63l71 -65l1385 1378l-66 66zM223 1163q-29 -141 38.5 -241.5t191.5 -100.5q126 0 233.5 100t138.5 242q30 140 -35.5 241t-191.5 101q-124 0 -235 -101.5t-140 -240.5zM358 1153q15 98 73 174.5t138 79.5q53 4 87 -30.5t44 -89t0 -116.5q-18 -98 -77.5 -175 t-133.5 -81q-81 -4 -115 67.5t-16 170.5zM717 338q-29 -141 38 -241.5t191 -100.5q126 0 234 100t139 242q30 140 -35.5 241t-191.5 101q-124 0 -235 -101.5t-140 -240.5zM852 328q15 98 73 174.5t138 79.5q79 6 114 -66.5t17 -169.5q-18 -98 -77.5 -175t-133.5 -81 q-79 -4 -114 68t-17 170z" />
<glyph unicode="&#x26;" horiz-adv-x="1851" d="M53.5 247.5q-2.5 60.5 9.5 127.5q15 72 53.5 139.5t96 126.5t116.5 106.5t136 98.5q-116 208 -90 336q38 177 158.5 265.5t277.5 88.5q149 0 227.5 -75t48.5 -216q-10 -49 -41 -95t-97.5 -99t-105 -79.5t-136.5 -90.5q-23 -15 -35 -23q130 -199 379 -448q180 200 241 489 l-164 35l19 86h455l-19 -86l-166 -35q-67 -307 -291 -565q94 -92 195 -182l248 -56l-21 -96h-284q-116 64 -269 205q-129 -110 -270 -172t-274 -62q-97 0 -171.5 20.5t-121 57.5t-74.5 87.5t-30.5 111zM244 414q-18 -85 18 -151t105.5 -99t156.5 -33q85 0 187 39t200 113 q-248 248 -391 471q-240 -170 -276 -340zM543 1245q-25 -115 75 -299q61 38 97.5 62t83 58t73.5 60.5t49 57.5t29 61q21 96 -22.5 146.5t-136.5 50.5q-92 0 -160 -51t-88 -146z" />
<glyph unicode="'" horiz-adv-x="475" d="M100 1004q13 81 45 256t41 241l209 49q-73 -251 -166 -546h-129z" />
<glyph unicode="(" horiz-adv-x="737" d="M125 672q-61 -286 5 -535t230 -424l95 66q-73 92 -120 226t-59.5 306t27.5 359q57 269 200.5 496.5t327.5 381.5l-65 64q-236 -166 -408 -411t-233 -529z" />
<glyph unicode=")" horiz-adv-x="737" d="M-80 -221l62 -66q229 174 395 423t227 536q60 284 -2 529t-217 411l-90 -64q72 -99 115 -227.5t54 -296.5t-30 -354q-57 -268 -201.5 -508t-312.5 -383z" />
<glyph unicode="*" horiz-adv-x="802" d="M129 989q102 43 213 86q-41 19 -102.5 49t-75.5 37l69 96q114 -88 150 -124q4 78 27 221h104q-1 -4 -26.5 -87t-43.5 -134q60 42 203 124l27 -96q-122 -51 -213 -86q124 -57 178 -86l-70 -96q-105 81 -149 125q-3 -49 -13.5 -126.5t-11.5 -94.5h-104q31 128 67 221 q-73 -51 -202 -125z" />
<glyph unicode="," horiz-adv-x="593" d="M102 -354q144 106 172 250q15 87 9 151.5t-21 101.5l-16 37q39 29 99 55.5t97 26.5q32 0 42.5 -47t4.5 -106.5t-22 -114.5q-31 -130 -133 -249t-225 -179z" />
<glyph unicode="-" d="M170 500l598 12l45 172l-598 -10z" />
<glyph unicode="." horiz-adv-x="489" d="M109 141q14 60 62 102t105 42q56 0 86 -42t17 -102q-12 -58 -60 -99.5t-104 -41.5q-57 0 -87.5 41t-18.5 100z" />
<glyph unicode="/" horiz-adv-x="1019" d="M-70 -342l111 -49l1049 1771l-107 47z" />
<glyph unicode="0" horiz-adv-x="1325" d="M107.5 504q-4.5 -116 17 -214t68 -168.5t124 -110.5t181.5 -40q129 0 243 61t199.5 168t147.5 246.5t96 303.5q28 130 32.5 245.5t-16.5 214t-66.5 169.5t-123 111t-181.5 40t-198.5 -40t-171 -111t-139.5 -169.5t-108 -214t-73 -245.5q-27 -130 -31.5 -246zM289 380.5 q-8 91.5 0 190t30 201.5q28 130 72 241.5t104 200.5t138.5 140t167.5 51q90 0 147.5 -56.5t77.5 -152.5t15 -212t-33 -247q-28 -129 -73.5 -245.5t-107 -212.5t-142.5 -152.5t-169 -56.5q-70 0 -119.5 41t-74.5 109.5t-33 160z" />
<glyph unicode="1" horiz-adv-x="835" d="M2 0l21 100l204 43l242 1135l-248 -86l19 82l417 229l25 -39l-281 -1319l191 -45l-23 -100h-567z" />
<glyph unicode="2" horiz-adv-x="1251" d="M-12 47l30 -47h904l104 342l-76 2l-112 -186h-476q152 132 261 235t217 222t173.5 228.5t86.5 207.5q24 121 9.5 206.5t-68 140t-130 80t-178.5 25.5q-65 0 -122 -9t-94.5 -20t-79.5 -34t-63 -38t-60 -45t-56 -42l-10 -277h76l79 222q41 43 121 76.5t174 33.5 q104 0 169 -88t36 -231q-16 -76 -75.5 -172t-141 -189.5t-177 -189t-187 -175.5t-167 -143.5t-121.5 -99.5z" />
<glyph unicode="3" horiz-adv-x="1224" d="M12 96l54 252l104 19q4 -111 33 -162q17 -57 74 -88t133 -31q64 0 129.5 21.5t124.5 62.5t104 109t63 153q18 76 11.5 145t-31.5 121t-77.5 82.5t-125.5 30.5q-94 0 -211 -47l-28 76l6 4l524 502h-455l-125 -201l-75 2l110 356h801l23 -37l-568 -542q31 8 66 8 q93 0 169.5 -32.5t125.5 -92t68 -142.5t-3 -184q-21 -98 -71.5 -182.5t-117 -143.5t-145.5 -101.5t-157 -62.5t-150 -20q-62 0 -107 3.5t-101.5 15t-101 38t-73.5 68.5z" />
<glyph unicode="4" horiz-adv-x="1294" d="M78 463h649l-72 -334l-172 -33l-20 -96h528l21 96l-168 33l69 334h177l30 145h-174l191 897h-101l-893 -911l-47 -47zM295 608l592 600l-129 -600h-463z" />
<glyph unicode="5" horiz-adv-x="1224" d="M2 90l53 252l105 18q4 -110 33 -161q18 -58 76.5 -88.5t138.5 -30.5q85 0 167.5 35.5t151.5 115t92 189.5q17 70 8 136t-35 117t-79.5 82t-124.5 31l-324 -2l236 654l592 4l90 141h78l-99 -293h-23q-23 0 -62 -0.5t-88.5 -0.5h-107t-113.5 -0.5t-112 -0.5h-98l-139 -381 h244q125 0 217 -55.5t131 -156.5t12 -226q-26 -121 -96 -219.5t-161 -158t-188.5 -91t-189.5 -31.5q-51 0 -84.5 1t-83.5 8t-85.5 19t-71.5 35.5t-60 57.5z" />
<glyph unicode="6" horiz-adv-x="1271" d="M91.5 403.5q-6.5 123.5 29 264t106.5 276.5q50 96 125.5 184.5t156.5 152.5t166.5 117t161 85t133 49.5t89.5 17.5l45 -69q-123 -33 -229 -89.5t-180.5 -119.5t-138 -142.5t-103 -147t-74.5 -144.5q-7 -15 -10 -25q154 109 323 109q129 0 225 -64t136.5 -173.5 t13.5 -238.5q-43 -197 -211.5 -336t-366.5 -139q-126 0 -216 57t-132.5 154.5t-49 221zM283 537q-57 -323 137 -439q57 -23 112 -20q89 5 166 62.5t124 142t63 178.5q14 94 -7.5 173.5t-80.5 130t-148 50.5q-136 0 -229 -78.5t-137 -199.5z" />
<glyph unicode="7" horiz-adv-x="1189" d="M86 0l909 1350h-575l-123 -199l-76 2l109 352h862l25 -39l-932 -1466h-199z" />
<glyph unicode="8" horiz-adv-x="1224" d="M59 373q27 136 127 239t277 189q-212 161 -166 385q33 164 162 255t309 91q172 0 257.5 -91.5t51.5 -260.5q-11 -56 -39.5 -103.5t-78 -89t-103 -75t-133.5 -76.5q40 -27 72 -50.5t63 -50t54 -52t43 -53.5t32.5 -57t19.5 -60.5t6.5 -66t-7.5 -71.5q-17 -82 -60.5 -153.5 t-113 -128t-171.5 -89.5t-225 -33q-226 9 -318.5 120.5t-58.5 281.5zM209 387q-26 -131 45.5 -212.5t218.5 -84.5q138 3 231.5 90t118.5 207q8 40 -4.5 80.5t-36 73.5t-66 71t-78.5 64t-91 63q-64 -38 -113 -72t-99 -78.5t-82.5 -96t-43.5 -105.5zM453 1097q8 -37 36 -74 t61.5 -68.5t90.5 -77.5q265 136 297 297q23 111 -29 170.5t-168 62.5q-241 -6 -288 -231q-8 -42 0 -79z" />
<glyph unicode="9" horiz-adv-x="1271" d="M188 55q92 0 206.5 55.5t217 144t184 210t107.5 242.5q-152 -107 -323 -107q-128 0 -224 63.5t-136.5 173t-12.5 238.5q27 129 113.5 238.5t209 173t252.5 63.5q83 0 150.5 -24.5t114.5 -69t78.5 -106t44.5 -135.5t10.5 -157t-21.5 -171q-53 -250 -200.5 -462t-346 -334 t-399.5 -122zM386 943q9 -69 35.5 -123t79.5 -85.5t124 -27.5q136 0 229 78t135 198q28 149 -3 264.5t-132 175.5q-49 19 -98 19q-132 0 -231.5 -107t-129.5 -250q-18 -73 -9 -142z" />
<glyph unicode=":" horiz-adv-x="520" d="M31 141q14 60 62.5 102t105.5 42q56 0 85.5 -42t16.5 -102q-12 -58 -60 -99.5t-104 -41.5q-57 0 -87.5 41t-18.5 100zM186 877q14 60 62.5 101.5t105.5 41.5q56 0 86 -41.5t17 -101.5q-12 -58 -60 -100t-104 -42q-57 0 -88 41.5t-19 100.5z" />
<glyph unicode=";" horiz-adv-x="567" d="M39 -354q144 106 172 250q15 87 8.5 151.5t-21.5 101.5l-16 37q39 29 99.5 55.5t97.5 26.5q32 0 42.5 -47t4 -106t-22.5 -115q-31 -130 -133 -249t-225 -179zM242 877q14 60 62.5 101.5t105.5 41.5q56 0 85.5 -41.5t16.5 -101.5q-12 -58 -60 -100t-104 -42 q-57 0 -87.5 41.5t-18.5 100.5z" />
<glyph unicode="?" horiz-adv-x="1026" d="M162 141q14 60 62.5 102t105.5 42q56 0 85.5 -42t16.5 -102q-12 -58 -60 -99.5t-104 -41.5q-57 0 -87.5 41t-18.5 100zM174 1104l8 264q1 9 26.5 27.5t73 42t106.5 44.5t136.5 35.5t153.5 14.5q184 0 273.5 -87.5t56.5 -252.5q-17 -83 -67 -157.5t-115 -129t-129 -99 t-122 -88.5t-81 -77q-22 -32 -36 -80t-17 -80l-3 -32l-133 -15q-1 109 19 189q13 52 64.5 108.5t116.5 106l130 99t114 106t60 108.5q6 37 7.5 74t-12 72t-36.5 61.5t-66.5 42.5t-101.5 16q-71 0 -136 -40.5t-104 -90.5q-20 -27 -38 -72.5t-26 -77.5l-9 -32h-113z" />
<glyph unicode="@" horiz-adv-x="1929" d="M131 253.5q-38 144.5 0 326.5q39 186 139 354t243 293.5t331 199.5t391 74q153 0 276 -44.5t204 -129.5t112 -207.5t-2 -279.5q-31 -147 -107 -267.5t-179.5 -200t-227.5 -122.5t-254 -43l-17 31l-24 49q-153 -80 -268 -80q-132 0 -190 102t-26 250q9 43 27 90 q45 122 144.5 230.5t220 172.5t227.5 64q90 0 160 -51l159 37l-292 -783q58 0 116 16t118 53.5t110.5 92.5t92 140t64.5 190q34 161 -10 294t-171 214.5t-318 81.5q-196 0 -381 -104.5t-318 -287t-180 -403.5q-42 -201 10.5 -361.5t187.5 -250.5t326 -90q277 0 539 174 l53 -70q-86 -72 -209.5 -121t-232 -67.5t-207.5 -18.5q-150 0 -281.5 53.5t-224.5 154t-131 245zM690 623q-28 -125 22 -209t150 -84q96 0 195 69l194 508q-66 94 -172 94q-105 0 -211 -85.5t-161 -229.5q-10 -30 -17 -63z" />
<glyph unicode="A" horiz-adv-x="1533" d="M-66 0l21 98l137 33l789 1405h73l217 -1407l158 -33l-18 -96h-498l18 96l138 33l-60 332l-483 2l-188 -332l168 -35l-19 -96h-453zM492 578h401l-84 559z" />
<glyph unicode="B" horiz-adv-x="1359" d="M-12 0h645q131 0 252.5 50t209.5 146t113 218q7 36 7 71q1 45 -11 89q-20 78 -78 133q-61 64 -143 88q38 20 76 47q74 54 125.5 128.5t66.5 149.5q8 39 8 74q0 116 -84 200q-109 108 -294 109h-588l-23 -104l125 -33l-250 -1229l-135 -33zM338 131l117 584q5 0 53.5 -0.5 t122 -1t139.5 -0.5q124 0 186 -81q46 -60 46 -135q0 -26 -5 -53q-22 -102 -95.5 -182t-186.5 -119q-49 -18 -143 -21q-32 -1 -61 -1q-57 0 -103 4zM481 838l6 32l105 514h270q114 0 171 -74q42 -54 42 -122q0 -25 -6 -51q-19 -93 -87 -164.5t-171 -108.5q-45 -16 -127 -22 q-72 -6 -126 -6h-16z" />
<glyph unicode="C" horiz-adv-x="1486" d="M129 758q45 222 173 401t305 278t368 99q80 0 176 -23.5t170 -55.5t124 -63.5t50 -47.5l-100 -265h-111q9 58 9 102q0 49 -11 81q-30 69 -120 117q-84 45 -195 45h-17q-122 -4 -242 -60.5t-221.5 -223.5t-140.5 -421q-12 -81 -12 -151q0 -56 8 -104q17 -108 63.5 -180.5 t114 -112.5t145.5 -50q29 -4 59 -4q50 1 100 11q80 16 153 56q76 42 146 93.5t102 82.5l32 31l70 -88l-19 -19t-52.5 -47t-83 -66.5t-105.5 -70.5t-125 -67t-138 -47t-147 -19q-87 0 -164 24t-136 67t-106 101.5t-77 128.5t-46 148q-16 75 -16 154q0 83 17 166z" />
<glyph unicode="D" horiz-adv-x="1576" d="M-12 0h432q96 0 165.5 3.5t160.5 15t172 39t151 69.5q136 84 237.5 230t141.5 354q27 123 27 226q1 39 -3 73q-14 130 -63.5 223t-137 153t-197.5 88.5t-245 28.5h-538l-21 -104l123 -33l-248 -1229l-137 -33zM354 211l213 1063q11 53 56 75.5t149 22.5q132 0 228 -38.5 t160 -120.5q62 -83 76 -211q4 -37 4 -78q0 -102 -23 -230q-114 -561 -705 -561q-76 0 -112 8t-44.5 23.5t-1.5 46.5z" />
<glyph unicode="E" horiz-adv-x="1294" d="M-12 0l975 2l96 328l-86 2l-113 -189h-528l117 572h440l119 119h-537l107 526h528l37 -186l86 2l37 327h-983l-21 -104l123 -33l-238 -1229l-137 -33z" />
<glyph unicode="F" horiz-adv-x="1210" d="M-12 0h489l19 96l-158 33l117 584h442l117 118h-535l107 527h526l37 -187l88 3l35 327l-979 2l-23 -104l125 -33l-250 -1237l-139 -33z" />
<glyph unicode="G" horiz-adv-x="1558" d="M116 502q-2 32 -2 65q0 88 17 183q32 160 117 305.5t199 250.5t255.5 167.5t282.5 62.5q120 0 233 -46.5t250 -137.5l-100 -265h-111q9 58 9 102q0 49 -11 81q-21 57 -98.5 104t-204.5 47q-89 0 -169.5 -34.5t-144 -93.5t-115 -140.5t-86.5 -174t-56 -194.5 q-23 -114 -27 -214q-1 -21 -1 -41q0 -77 13 -147q17 -87 56.5 -149.5t108.5 -98.5t163 -36q83 0 168 16.5t128 33.5l44 16l82 405l-166 35l19 96h473l-19 -96l-139 -35l-98 -481q-36 -14 -95 -34.5t-197 -54.5t-224 -34q-114 0 -212.5 40t-169 111.5t-117 170.5t-55.5 215z " />
<glyph unicode="H" horiz-adv-x="1728" d="M-12 0h499l19 96l-125 33l117 586h725l-119 -586l-135 -33l-19 -96h486l20 96l-160 33l252 1247l172 33l21 96h-488l-18 -96l121 -33l-109 -542h-725l111 542l137 33l18 96h-495l-21 -96l170 -33l-252 -1247l-182 -33z" />
<glyph unicode="I" horiz-adv-x="808" d="M-12 0l18 96l180 35l250 1241l-166 35l21 96l530 2l-18 -96l-172 -37l-252 -1241l160 -33l-21 -96z" />
<glyph unicode="J" horiz-adv-x="903" d="M41 -184l18 92q73 0 169 103.5t120 221.5l227 1141h3l-170 35l18 94l539 2l-19 -94l-176 -37l-219 -1083q-18 -93 -64.5 -179t-112.5 -151.5t-153 -105t-180 -39.5z" />
<glyph unicode="K" horiz-adv-x="1533" d="M-12 0h495l19 96l-168 35l112 557l54 41l516 -729h287l18 96l-143 29l-519 737l662 514l174 33l18 96h-438l-20 -94l108 -31l-682 -524l105 520l182 35l18 94h-495l-19 -94l121 -35l-250 -1245h-2l-135 -35z" />
<glyph unicode="L" horiz-adv-x="1114" d="M-12 0h981l94 319h-86l-111 -176h-526l248 1231l180 35l18 94h-495l-19 -94l123 -35l-250 -1237l-137 -33z" />
<glyph unicode="M" horiz-adv-x="1941" d="M-12 0h442l19 96l-168 33l221 1096l262 -1217h61l762 1221l-223 -1100l-137 -33l-19 -96h490l20 96l-164 33l250 1237l127 33l23 104h-340l-711 -1095l-260 1095h-352l-21 -104l125 -33l-250 -1237l-137 -33z" />
<glyph unicode="N" horiz-adv-x="1650" d="M-12 0h438l20 96l-167 35l231 1147l496 -1278h229l278 1374l129 33l21 96h-434l-21 -96l168 -33l-235 -1175l-506 1304h-342l-23 -104l125 -33l-250 -1235l-137 -33z" />
<glyph unicode="O" horiz-adv-x="1644" d="M116 510q10 -118 56 -217t116.5 -171t169 -112.5t212.5 -40.5q188 0 370 106t312.5 288t173.5 395q16 93 16 178q0 35 -2 69q-10 116 -57 213.5t-117.5 168t-169 110t-211.5 39.5q-142 0 -283.5 -61.5t-256 -165t-199.5 -248t-117 -303.5q-16 -93 -16 -179q0 -35 3 -69z M338 526q-1 18 0 36q0 78 10 159q19 125 69 245t123.5 217.5t174.5 159.5t211 68q12 1 23 1q75 0 139 -29q72 -33 117.5 -93.5t75 -143t33.5 -176.5q1 -21 0 -44q0 -74 -9 -152q-15 -99 -50.5 -196.5t-89.5 -184t-121 -154t-150.5 -109t-172.5 -46.5q-12 -1 -23 -1 q-76 -1 -138 29q-72 34 -117 94.5t-73.5 143t-31.5 176.5z" />
<glyph unicode="P" horiz-adv-x="1325" d="M-12 0l18 96l139 35l248 1235l-123 33l21 103h606q128 0 229 -51q100 -51 150 -145q34 -65 35 -140q0 -35 -8 -72q-25 -120 -119 -217.5t-220 -149t-255 -51.5h-265l-108 -545l168 -35l-21 -96h-495zM469 799q35 -2 86 -2q105 0 190 15t160 49.5t125 99t68 155.5 q6 28 6 53q0 75 -48 133q-64 78 -200 78q-57 0 -119.5 0.5t-103.5 1t-45 0.5z" />
<glyph unicode="Q" horiz-adv-x="1644" d="M131 752q32 160 116 305t198.5 250t256 167t283.5 62q189 0 328.5 -104.5t196.5 -285.5q32 -103 32 -217q0 -85 -18 -177q-52 -256 -225.5 -459.5t-399.5 -282.5l352 -381q-18 -3 -37 -3q-44 0 -94 16q-70 23 -128.5 62t-120 94t-98 94.5t-68.5 78.5q-12 -2 -35 -2 q-190 0 -329.5 104.5t-196.5 284.5q-32 102 -32 215q0 87 19 179zM336 522q3 -94 32 -175.5t74.5 -141t117.5 -91.5q62 -29 138 -29q11 0 23 1q111 6 212 67t175 157t125 215t70 245q10 79 10 154q0 20 -1 40q-3 94 -32.5 176t-75.5 142t-118 92q-63 28 -138 28 q-12 0 -24 -1q-110 -6 -211 -67t-174 -157.5t-123.5 -215.5t-69.5 -244q-11 -82 -11 -160q0 -17 1 -35z" />
<glyph unicode="R" horiz-adv-x="1478" d="M-12 0l18 96l139 35l248 1235l-123 33l21 103h606q128 0 229 -51q100 -51 150 -145q34 -65 34 -140q0 -35 -7 -72q-24 -115 -110.5 -209t-203 -146.5t-241.5 -60.5l385 -549l143 -33l-21 -96h-280l-479 676h-52l-108 -545l158 -35l-21 -96h-485zM471 801q35 -2 84 -2 q105 0 189.5 15t159.5 49.5t123.5 98t66.5 154.5q5 27 5 53q1 73 -43 131q-60 78 -182 78q-65 0 -132 0.5t-109 1t-45 0.5z" />
<glyph unicode="S" horiz-adv-x="1241" d="M20 98l33 148l29 145l125 23q0 -128 39 -189q2 -3 18.5 -25t25 -32t29.5 -29.5t40.5 -29t50 -17.5t65.5 -8q81 0 150.5 28t116.5 74t78 100.5t44 112.5q4 19 4 37q0 30 -11 58q-18 44 -56 79t-90 68t-110.5 63.5t-117 62.5t-109.5 69.5t-87.5 79t-51.5 96.5q-8 29 -8 61 q0 28 6 57q24 112 109 205.5t202.5 145t239.5 51.5q96 0 175.5 -12.5t127.5 -30.5t81 -39t45 -38t10 -28l-103 -264h-110q9 61 9 106.5t-9 76.5q-28 66 -92.5 91t-174.5 25q-142 0 -228.5 -65.5t-106.5 -163.5q-4 -19 -4 -36q0 -64 54 -114q69 -62 234 -137 q365 -167 365 -408q0 -36 -8 -73q-15 -68 -46 -131.5t-82.5 -122.5t-119 -102t-159.5 -69t-198 -26q-291 0 -424 127z" />
<glyph unicode="T" horiz-adv-x="1466" d="M186 1176l86 -2l121 200h379l-250 -1245l-137 -33l-20 -96h497l19 96l-168 33l252 1245h370l41 -200l86 2l37 327h-1216z" />
<glyph unicode="U" horiz-adv-x="1718" d="M244 1407l170 -33l-160 -790q-14 -68 -14 -132q0 -54 10 -104q22 -112 86 -198q66 -88 163 -134.5t214 -46.5t232.5 46.5t215.5 134.5q100 86 166.5 198.5t91.5 235.5l160 790l180 33l21 96h-457l-20 -96l122 -33l-170 -833q-34 -170 -173 -292t-300 -122 q-164 1 -261 123q-71 90 -71 205q0 42 9 86l166 833l137 33l18 96h-516z" />
<glyph unicode="V" horiz-adv-x="1593" d="M205 1407l20 96h508l-20 -96l-138 -35l160 -1003l570 1003l-168 35l22 96h492l-19 -96l-180 -35l-788 -1403h-76l-217 1403z" />
<glyph unicode="W" horiz-adv-x="2476" d="M205 1407l20 96h508l-20 -96l-138 -35l140 -1003l612 1138h203l156 -1138l552 1005l-2 -2l-168 35l21 94l444 2l-18 -96l-131 -35l-770 -1403h-74l-180 1313l-715 -1313h-76l-198 1403z" />
<glyph unicode="X" horiz-adv-x="1579" d="M-51 0l20 96l144 33l526 664l-277 581l-129 33l21 96h500l-21 -96l-137 -33l229 -479l377 479l-123 33l21 96h444l-20 -96l-172 -33h-4l-474 -588l312 -655h2l123 -35l-21 -96h-493l18 96l137 33l-264 555l-432 -555l123 -33l-19 -96h-411z" />
<glyph unicode="Y" horiz-adv-x="1529" d="M154 1407l20 96h541l-19 -96l-137 -33h-2l234 -553l458 553l-123 33l21 96h444l-20 -96l-172 -33h-4l-572 -686l-112 -559l166 -33l-21 -96h-494l21 96l135 33l109 545l-303 700z" />
<glyph unicode="Z" horiz-adv-x="1355" d="M-49 47l82 96h2l1052 1215h-710l-113 -184h-86l96 329h1102l29 -47l-1137 -1313h713l113 187l84 -2l-95 -328h-1101z" />
<glyph unicode="a" horiz-adv-x="1140" d="M66 241q-14 60 -14 123.5t14 131.5q28 145 122.5 274.5t224 206t257.5 76.5q111 0 200 -62l193 62l-178 -901l137 -13l-16 -92l-308 -78l-24 39l14 68q-181 -107 -305 -107q-123 0 -206 76t-111 196zM233 541q-10 -51 -10 -98q1 -113 57 -203q80 -126 218 -125 q101 0 213 84l120 606q-89 108 -221 108q-81 0 -157.5 -43t-136 -129t-83.5 -200z" />
<glyph unicode="b" horiz-adv-x="1081" d="M51 90l266 1313l-141 10l19 92l303 78l24 -39l-125 -618q184 127 340 127q69 0 125 -30t91 -82t56.5 -121.5t21.5 -148t-15 -161.5q-23 -114 -87 -217.5t-145.5 -173t-172 -110t-169.5 -40.5q-181 0 -391 121zM244 160q22 -31 82.5 -48.5t140.5 -17.5q85 0 163 68.5 t128.5 168.5t72.5 210q11 62 11 116q0 33 -4 63q-10 80 -61 131.5t-134 51.5q-110 0 -270 -98z" />
<glyph unicode="c" horiz-adv-x="1003" d="M62 246q-12 53 -11 106q0 54 12 107q29 147 121.5 283.5t224 223.5t263.5 87q119 0 205 -56q41 -24 59.5 -53t15.5 -49l-78 -227h-110q8 55 8 98q0 56 -14 92q-31 55 -150 55q-120 0 -222.5 -100.5t-133.5 -271.5q-12 -53 -12 -105q0 -28 4 -56q10 -78 39 -139t82.5 -98 t119.5 -37q146 0 308 170l57 -65q-105 -115 -224.5 -178.5t-232.5 -63.5q-130 0 -233 90q-74 79 -98 187z" />
<glyph unicode="d" horiz-adv-x="1193" d="M66 241q-14 60 -14 123.5t14 131.5q22 109 83.5 212t144 178.5t182.5 121t196 45.5q111 0 200 -62l82 412l-149 14l20 92l314 74l24 -39l-280 -1392l139 -13l-18 -92l-306 -78l-24 39l12 68q-181 -107 -303 -107q-123 0 -206 76t-111 196zM236 541q-10 -50 -10 -97 q0 -61 16 -117q28 -99 96 -155.5t158 -56.5q103 0 215 84l123 606q-92 108 -224 108q-126 0 -233 -100.5t-141 -271.5z" />
<glyph unicode="e" horiz-adv-x="1019" d="M41 354q0 171 79.5 332t216 263t290.5 102q64 0 122.5 -11.5t112 -37t85.5 -72.5t32 -111q0 -78 -48 -140.5t-123.5 -100.5t-176.5 -63.5t-197.5 -35.5t-195.5 -10q-17 -63 -17 -107q0 -53 12 -96.5t38.5 -81t77 -59t120.5 -21.5q89 0 188 50.5t187 144.5l67 -70 q-114 -130 -240 -195t-245 -65q-85 0 -151 18t-120.5 59.5t-84 119t-29.5 188.5zM266 580q50 0 110.5 5t136.5 19.5t136.5 37t102 62t41.5 89.5q0 67 -42 109t-116 42q-69 0 -134.5 -36t-111.5 -91.5t-78 -117t-45 -119.5z" />
<glyph unicode="f" horiz-adv-x="905" d="M61 0l21 96l137 33l156 776l-117 -2l-6 39l78 78h69l39 201q24 149 139.5 254.5t247.5 105.5q76 0 149 -43q63 -39 63 -82q0 -6 -1 -12l-69 -182h-107q9 56 9 99q0 52 -13 85q-15 27 -55 27q-49 0 -100 -37t-62 -90l-64 -326h252l-24 -78q-5 -14 -17 -24.5t-24 -10.5 l-209 -2l-2 -12l-154 -764l168 -33l-20 -96h-484z" />
<glyph unicode="g" horiz-adv-x="1179" d="M-1 -289q-1 8 -1 17q0 30 14 61q27 65 129 144t189 118q-52 38 -52 89q0 24 11 50q19 44 52 76.5t93 67.5q-99 40 -148 136q-32 63 -32 132q0 35 8 72q33 150 165.5 263.5t287.5 113.5q52 0 105.5 -18.5t90.5 -49.5l310 37l-47 -125l-191 -6q31 -58 31 -132q0 -36 -8 -77 q-31 -147 -165.5 -257t-281.5 -112q-29 0 -43 2q-29 -21 -45 -45q-17 -26 -17 -58t42 -70q42 -37 127 -72q189 -77 266.5 -144.5t77.5 -165.5q0 -65 -50 -121t-129 -91.5t-172.5 -55.5t-185.5 -20q-76 0 -144 13t-117.5 35t-88.5 53t-57.5 66t-23.5 74zM181 -260 q0 -32 22 -60t58.5 -50t99 -34.5t143.5 -13.5q138 0 213.5 48.5t75.5 109.5q0 26 -14 49t-35.5 41t-61.5 40.5t-76 39t-96.5 45.5t-106.5 53q-64 -33 -127.5 -94.5t-82.5 -106.5q-12 -36 -12 -67zM441 560q8 -61 49 -100q38 -36 97 -36h9q92 6 157 79t87 175q7 36 7 70 q0 31 -6 60q-13 60 -55 97q-39 33 -96 33h-12q-90 -6 -152 -76.5t-82 -171.5q-6 -41 -6 -78q0 -27 3 -52z" />
<glyph unicode="h" horiz-adv-x="1138" d="M-31 0l19 96l137 33l256 1274l-141 10l18 92l303 78l25 -39l-127 -645q100 84 166.5 119t158.5 35q137 1 202 -111q43 -74 43 -170q0 -48 -11 -102l-109 -541l148 -33l-21 -96h-456l20 96l137 33l115 563q7 33 7 61q-1 55 -27 90q-40 52 -123 54h-6q-135 0 -273 -135 l-125 -633l168 -33l-20 -96h-484z" />
<glyph unicode="i" horiz-adv-x="649" d="M-31 0l21 96l137 33l149 737l-143 8l17 93l305 84l24 -39l-174 -883l148 -33l-19 -96h-465zM324 1425q10 52 51 88.5t88 36.5h10h12q48 0 68 -32q14 -22 14 -50q0 -11 -2 -24q-10 -50 -43 -78q-46 -63 -110 -63q-46 -1 -72 35q-18 26 -19 59q0 14 3 28z" />
<glyph unicode="j" horiz-adv-x="550" d="M-205 -444q97 0 178 62.5t99 145.5l221 1104l-141 11l18 92l303 80l25 -39l-238 -1182q-25 -153 -148.5 -256.5t-287.5 -103.5zM344 1425q10 52 51 88.5t88 36.5h11h12q48 0 68 -32q14 -22 14 -50q0 -12 -2 -24q-10 -50 -43 -78q-46 -63 -111 -63q-47 0 -72 35 q-19 26 -19 59q0 14 3 28z" />
<glyph unicode="k" horiz-adv-x="1234" d="M-31 0q2 13 11 51t10 45l137 35l256 1268l-143 8l18 92l303 84l27 -39l-197 -975l-88 -438l168 -35q-10 -50 -18 -96h-484zM391 569l424 326l-104 29l18 96h428l-18 -96l-162 -33l-383 -297l291 -469l131 -29l-19 -96h-452l20 96l103 25z" />
<glyph unicode="l" horiz-adv-x="669" d="M-31 0h484l20 96l-168 33l283 1413l-23 41l-305 -80l-18 -92l141 -10l-258 -1272l-137 -33z" />
<glyph unicode="m" horiz-adv-x="1746" d="M-31 0h473l19 96l-156 33l125 633q64 62 136.5 98.5t142.5 36.5q83 -1 123 -55q25 -34 25 -86q0 -32 -9 -70l-113 -557l-137 -33l-20 -96h466l19 96l-158 33l111 557l14 74q50 47 139 92t142 45q82 0 120 -54q24 -35 24 -90q0 -30 -7 -67l-113 -557l-135 -33l-20 -96h465 l20 96l-158 33l111 557q11 53 10 99q0 95 -44 165q-66 103 -202 103q-86 0 -170 -45t-192 -146q-21 89 -82.5 140t-155.5 51q-81 0 -166 -42.5t-159 -113.5l6 115l-23 39l-288 -80l-19 -92l141 -11l-147 -739l-137 -33z" />
<glyph unicode="n" horiz-adv-x="1148" d="M-31 0h473l21 96l-158 33l127 633q62 62 135 98.5t144 36.5q83 -1 124 -55q26 -34 26 -87q0 -31 -9 -69l-113 -557l-137 -33l-18 -96h465l18 96l-156 33q70 360 111 557q10 52 10 98q0 96 -45 166q-67 104 -205 103q-80 0 -165.5 -42.5t-159.5 -113.5l8 115l-25 39 l-286 -80l-21 -92l143 -11l-149 -739l-137 -33z" />
<glyph unicode="o" horiz-adv-x="1077" d="M58 301q20 -98 68 -172t128 -117t176 -43t193 43.5t175.5 116t136 172.5t79.5 209q13 63 12 122q0 77 -21 148q-38 125 -133.5 199t-224.5 74q-96 0 -192.5 -43.5t-175 -117t-136.5 -173.5t-80 -209q-13 -61 -13 -119q-1 -46 8 -90zM248 494q17 108 64 204t124 162.5 t166 71.5h14q80 0 134 -54q60 -59 78 -152q10 -48 9 -101q0 -48 -8 -99q-16 -106 -64 -202.5t-126 -162.5t-166 -71h-14q-79 0 -133 54q-58 60 -77 152q-9 48 -9 98q0 49 8 100z" />
<glyph unicode="p" horiz-adv-x="1179" d="M-102 -498h477l20 97l-164 34l88 437q127 -101 263 -101q123 0 236.5 77.5t190 201.5t105.5 266q13 77 13 153.5t-22.5 146t-57.5 123t-92.5 85t-127.5 31.5q-133 0 -335 -135l4 94l-27 39l-287 -76l-18 -92l139 -13l-250 -1239l-135 -32zM338 168l129 633 q134 106 240 106q139 0 197 -123q33 -71 33 -172q0 -76 -19 -170q-32 -156 -126.5 -255t-234.5 -99q-123 0 -219 80z" />
<glyph unicode="q" horiz-adv-x="1130" d="M66 241q-14 60 -14 123.5t14 131.5q22 109 83.5 212t144 178.5t182.5 121t196 45.5q57 0 128.5 -24.5t233.5 -100.5l-262 -1297h-178l90 455q-139 -69 -198 -93t-103 -24q-123 0 -206 76t-111 196zM236 541q-10 -50 -10 -97q0 -61 16 -117q29 -99 96.5 -155.5 t157.5 -56.5q103 0 215 84l123 606q-89 108 -224 108q-126 0 -233 -100.5t-141 -271.5zM393 -498h484l18 97l-123 32h-178l-180 -32q-2 -13 -11 -51.5t-10 -45.5z" />
<glyph unicode="r" horiz-adv-x="903" d="M-31 0h482l20 96l-170 33l111 563q56 96 128 157.5t124 61.5q36 0 51 -34l200 112q-72 64 -194 64q-67 0 -133.5 -50.5t-143.5 -144.5l17 154l-25 39l-284 -80l-19 -92l139 -11l-147 -739l-137 -33zM715 877q10 -27 11.5 -61t-2.5 -54l-3 -21h106l88 248z" />
<glyph unicode="s" horiz-adv-x="946" d="M27 51l51 252l104 19q6 -111 35 -162q15 -35 66 -63.5t112 -28.5q90 0 143.5 39.5t67.5 111.5q2 11 2 22q0 29 -16 57q-22 38 -63.5 68.5t-93 62.5t-102 68t-89.5 76q-40 41 -59 95q-12 33 -12 69q0 23 5 47q17 85 81 147.5t150 92t181 29.5q127 0 205 -38.5t96 -74.5 l-76 -246h-102q7 50 7 89q0 49 -11 81t-51 61t-113 29q-87 0 -145 -36.5t-72 -108.5q-1 -5 -1 -10q1 -24 21 -49q24 -31 67 -61.5t95.5 -64.5t104 -73t92 -80.5t60.5 -94.5q13 -34 13 -69q0 -19 -4 -39q-27 -134 -136.5 -216.5t-281.5 -82.5q-100 0 -182 18.5t-116 37 t-33 26.5z" />
<glyph unicode="t" horiz-adv-x="735" d="M113 143q2 54 22 158l123 602l-129 -2l-4 41l76 78h80l49 237l162 164l43 -12l-78 -389h260l-25 -78q-5 -15 -16.5 -25t-24.5 -10l-219 -2l-2 -14l-129 -649q-4 -21 -4 -40q-1 -31 11 -54q18 -37 61 -37q10 0 20.5 2t28 8.5t30.5 12t46 20t57 24.5l18 -78l-202 -106 q-48 -25 -99 -25q-69 -1 -114 49q-41 45 -41 113v12z" />
<glyph unicode="u" horiz-adv-x="1103" d="M72 874l141 -6l-104 -516q-11 -53 -11 -101q0 -95 44 -169q66 -110 206 -111q92 0 160 35.5t164 116.5l-6 -115l26 -39l275 78l18 92l-129 13l170 858l-22 41l-304 -80l-18 -92l139 -11l-121 -606q-49 -49 -128.5 -85t-147.5 -36q-85 0 -123 54q-26 37 -26 96q0 28 6 61 l135 662l-25 41l-303 -88z" />
<glyph unicode="v" horiz-adv-x="1110" d="M72 924l166 -33l129 -891h90l495 891l170 33l19 96h-406l-20 -96l125 -33l-344 -610l-82 608l149 35l21 96h-494z" />
<glyph unicode="w" horiz-adv-x="1683" d="M72 924l20 96l477 -2l-18 -96l-137 -33l65 -610l414 741h94l96 -737l328 608l-123 33l19 96h407l-20 -96l-170 -33l-480 -891h-88l-106 737l-410 -735h-90l-112 889z" />
<glyph unicode="x" horiz-adv-x="1222" d="M-39 0l21 96l174 33l346 381l-191 381l-170 33l21 96h512l-21 -96l-127 -33l129 -254l232 254l-125 33l20 96h435l-21 -96l-164 -33l-325 -356l204 -406l158 -33l-20 -96h-512l20 96l137 33l-141 279l-252 -279l123 -33l-18 -96h-445z" />
<glyph unicode="y" horiz-adv-x="1148" d="M72 -467l131 -63q233 377 815 1421l170 33l20 96h-415l-21 -96l123 -33l-334 -588l-145 -256q-76 -118 -162 -246.5t-134 -198.5zM117 924l18 96h494l-21 -96l-137 -33l90 -590l-145 -254l-133 844z" />
<glyph unicode="z" horiz-adv-x="1095" d="M20 39l27 -39h799l98 330l-86 2l-121 -201h-426l760 850l-24 39h-797l-98 -330h88l118 199h422z" />
<glyph unicode="&#xad;" d="M170 500l598 12l45 172l-598 -10z" />
<glyph unicode="&#x2000;" horiz-adv-x="824" />
<glyph unicode="&#x2001;" horiz-adv-x="1649" />
<glyph unicode="&#x2002;" horiz-adv-x="824" />
<glyph unicode="&#x2003;" horiz-adv-x="1649" />
<glyph unicode="&#x2004;" horiz-adv-x="549" />
<glyph unicode="&#x2005;" horiz-adv-x="412" />
<glyph unicode="&#x2006;" horiz-adv-x="274" />
<glyph unicode="&#x2007;" horiz-adv-x="274" />
<glyph unicode="&#x2008;" horiz-adv-x="206" />
<glyph unicode="&#x2009;" horiz-adv-x="329" />
<glyph unicode="&#x200a;" horiz-adv-x="91" />
<glyph unicode="&#x2010;" d="M170 500l598 12l45 172l-598 -10z" />
<glyph unicode="&#x2011;" d="M170 500l598 12l45 172l-598 -10z" />
<glyph unicode="&#x2012;" d="M170 500l598 12l45 172l-598 -10z" />
<glyph unicode="&#x2013;" horiz-adv-x="1116" d="M106 500l857 12l47 172l-856 -10z" />
<glyph unicode="&#x2014;" horiz-adv-x="1849" d="M125 500l1542 12l57 172l-1540 -10z" />
<glyph unicode="&#x2018;" horiz-adv-x="587" d="M105 938.5q6 58.5 22 112.5q30 127 129.5 242.5t220.5 174.5l6 -71q-140 -102 -168 -244q-15 -85 -8.5 -148.5t21.5 -100.5l16 -36q-38 -29 -97 -54.5t-95 -25.5q-32 0 -42.5 46t-4.5 104.5z" />
<glyph unicode="&#x2019;" horiz-adv-x="587" d="M84 901q140 102 168 244q15 85 8.5 148.5t-22.5 100.5l-15 36q38 28 97.5 53.5t95.5 25.5q32 0 42.5 -46t4 -103.5t-22.5 -112.5q-30 -127 -129.5 -243t-220.5 -175z" />
<glyph unicode="&#x201c;" horiz-adv-x="1011" d="M116 938q6 57 21 113q32 128 131 243.5t221 173.5l7 -71q-138 -98 -170 -244q-15 -85 -8.5 -148.5t21.5 -100.5l15 -36q-36 -28 -95.5 -54t-94.5 -26q-33 0 -43.5 46.5t-4.5 103.5zM538 938q6 58 21 113q32 128 131 243.5t221 173.5l7 -71q-138 -98 -170 -244 q-14 -85 -7.5 -148.5t21.5 -100.5l16 -36q-38 -29 -97 -54.5t-95 -25.5q-32 0 -43 46t-5 104z" />
<glyph unicode="&#x201d;" horiz-adv-x="1026" d="M98 889q145 96 176 237q19 85 15 149.5t-17 102.5l-14 37q38 27 98 50t95 22q32 -1 41 -47.5t0.5 -104.5t-25.5 -112q-36 -127 -140 -240.5t-225 -167.5zM516 870q137 90 178 238q18 85 14.5 149.5t-16.5 102.5l-14 37q36 26 96 49t96 22q32 -1 40.5 -47.5t0 -104 t-25.5 -112.5q-36 -127 -139.5 -240t-225.5 -167z" />
<glyph unicode="&#x2022;" horiz-adv-x="692" d="M96 518q22 91 94.5 153t157.5 62q84 0 130 -62.5t24 -152.5q-19 -88 -91 -149.5t-155 -61.5q-85 0 -132 61.5t-28 149.5z" />
<glyph unicode="&#x202f;" horiz-adv-x="329" />
<glyph unicode="&#x205f;" horiz-adv-x="412" />
<glyph unicode="&#x20ac;" horiz-adv-x="1671" d="M86 494l27 127l956 20l-25 -121zM143 772l29 127l1034 19l-24 -119z" />
<glyph unicode="&#x25fc;" horiz-adv-x="1024" d="M0 0v1024h1024v-1024h-1024z" />
</font>
</defs>
</svg>
